<svg width="32" height="32" viewBox="0 0 32 32" fill="none" xmlns="http://www.w3.org/2000/svg">
<path d="M12.4991 4.5C12.4991 3.80777 12.7044 3.13108 13.089 2.55551C13.4736 1.97993 14.0202 1.53133 14.6597 1.26642C15.2993 1.00152 16.003 0.932205 16.6819 1.06725C17.3609 1.2023 17.9845 1.53564 18.474 2.02513C18.9635 2.51461 19.2968 3.13825 19.4319 3.81719C19.5669 4.49612 19.4976 5.19985 19.2327 5.83939C18.9678 6.47894 18.5192 7.02556 17.9436 7.41015C17.3681 7.79473 16.6914 8 15.9991 8C15.0709 8 14.1806 7.63125 13.5243 6.97487C12.8679 6.3185 12.4991 5.42826 12.4991 4.5ZM26.9266 17.5975L21.2704 11.185C20.9419 10.8126 20.538 10.5143 20.0854 10.31C19.6328 10.1057 19.1419 10 18.6454 10H13.3529C12.8563 10 12.3654 10.1057 11.9128 10.31C11.4603 10.5143 11.0563 10.8126 10.7279 11.185L5.07163 17.5975C4.70435 17.9733 4.49972 18.4785 4.50197 19.004C4.50423 19.5295 4.71319 20.0329 5.08368 20.4056C5.45418 20.7782 5.95643 20.99 6.48188 20.9953C7.00732 21.0006 7.51373 20.7989 7.89163 20.4338L11.1241 17.8375L8.66163 27.1975C8.44739 27.6785 8.43144 28.2245 8.61725 28.7171C8.80307 29.2098 9.17564 29.6093 9.65414 29.8289C10.1326 30.0486 10.6785 30.0707 11.1732 29.8905C11.6679 29.7103 12.0716 29.3422 12.2966 28.8663L15.9991 22.5L19.6966 28.875C19.9217 29.351 20.3254 29.719 20.8201 29.8992C21.3148 30.0795 21.8606 30.0573 22.3391 29.8377C22.8176 29.618 23.1902 29.2185 23.376 28.7259C23.5618 28.2332 23.5459 27.6872 23.3316 27.2063L20.8741 17.8375L24.1116 20.4338C24.4895 20.7989 24.9959 21.0006 25.5214 20.9953C26.0468 20.99 26.5491 20.7782 26.9196 20.4056C27.2901 20.0329 27.499 19.5295 27.5013 19.004C27.5035 18.4785 27.2989 17.9733 26.9316 17.5975H26.9266Z" fill="#FA662B"/>
</svg>
